# xmcd CD database file
#
# Track frame offsets:
#	150
#	19385
#	38785
#	51770
#	63840
#	81032
#	91700
#	112195
#	123867
#	137107
#	150832
#	165577
#	179865
#	196795
#	213000
#	228540
#	236509
#
# Disc length: 3271 seconds
#
# Revision: 0
# Processed by: cddbd v1.5.2PL0 Copyright (c) Steve Scherf et al.
# Submitted via: CDex 1.51
#
DISCID=d80cc511
DTITLE=Les Baladins - Les Baladins celebrate Christmas
DYEAR=1980
DGENRE=Chants de Noël
TTITLE0=Jet d'eau
TTITLE1=Le messager
TTITLE2=Sur nos monts
TTITLE3=Dormez portes ouvertes
TTITLE4=La saltarelle du diable
TTITLE5=En Avignon
TTITLE6=L'horloger
TTITLE7=Sur les chemins du vent
TTITLE8=L'oiseau d'Assise
TTITLE9=Les jours heureux
TTITLE10=En Bourgogne, l'hiver venu
TTITLE11=Mozart
TTITLE12=Le rêve
TTITLE13=Les vendéens
TTITLE14=Viens-tu Sally ¿
TTITLE15=La dormeuse
TTITLE16=Noël flamand
EXTD=YEAR: 1980
EXTT0=
EXTT1=
EXTT2=
EXTT3=
EXTT4=
EXTT5=
EXTT6=
EXTT7=
EXTT8=
EXTT9=
EXTT10=
EXTT11=
EXTT12=
EXTT13=
EXTT14=
EXTT15=
EXTT16=
PLAYORDER=
